<svg xmlns="http://www.w3.org/2000/svg" xmlns:xlink="http://www.w3.org/1999/xlink" viewBox="0 0 102.926 81.668">
  <defs>
    <style>
      .cls-1 {
        fill: rgba(255,255,255,0.5);
      }

      .cls-2 {
        clip-path: url(#clip-path);
      }

      .cls-3 {
        fill: #fff;
      }
    </style>
    <clipPath id="clip-path">
      <path id="Mask" class="cls-1" d="M35.588,65.393a2.277,2.277,0,0,1-4.063,0L.025,3.189A2.2,2.2,0,0,1,1.985,0h45.27A13.18,13.18,0,0,1,59.013,19.134Z" transform="translate(0.491)"/>
    </clipPath>
  </defs>
  <g id="Group_2" data-name="Group 2" transform="translate(-0.277)">
    <g id="Group_4" data-name="Group 4">
      <path id="Triangle_2" data-name="Triangle 2" class="cls-1" d="M20.868,34.7,0,0H34.866a2.2,2.2,0,0,1,1.96,3.189Z" transform="translate(65.898 0)"/>
      <g id="Path_2" data-name="Path 2">
        <path id="Mask-2" data-name="Mask" class="cls-1" d="M35.588,65.393a2.277,2.277,0,0,1-4.063,0L.025,3.189A2.2,2.2,0,0,1,1.985,0h45.27A13.18,13.18,0,0,1,59.013,19.134Z" transform="translate(0.491)"/>
      </g>
      <g id="Group" transform="translate(33.611)">
        <path id="Combined_Shape" data-name="Combined Shape" class="cls-3" d="M0,0,33.114,65.393a2.277,2.277,0,0,0,4.063,0L52.719,34.7,35.146,0Z" transform="translate(0.436)"/>
      </g>
    </g>
    <path id="WE_UPDATE_YOU" data-name="WE UPDATE YOU" class="cls-3" d="M100.872,5.519a1.9,1.9,0,0,1-2.049-1.951V.091h.532V3.56a1.515,1.515,0,0,0,3.029-.015V.091h.524V3.568A1.888,1.888,0,0,1,100.872,5.519Zm-9.526,0a2.727,2.727,0,0,1-2.718-2.794,2.718,2.718,0,1,1,5.436,0A2.727,2.727,0,0,1,91.346,5.519Zm0-5.033a2.182,2.182,0,0,0-2.171,2.239,2.175,2.175,0,1,0,4.342,0A2.182,2.182,0,0,0,91.346.486ZM26.8,5.519a1.9,1.9,0,0,1-2.049-1.951V.091h.531V3.56a1.515,1.515,0,0,0,3.028-.015V.091h.524V3.568A1.888,1.888,0,0,1,26.8,5.519Zm24.451-.09H50.7L52.661.091h.562L55.18,5.427h-.554l-.615-1.7H51.863l-.607,1.7ZM52.934.645l0,.017c-.077.294-.146.527-.2.674l-.714,1.935h1.837l-.7-1.935c-.062-.171-.145-.465-.2-.682l0-.009ZM2.012,5.429h-.63L0,.091H.546L1.579,4.236c.062.242.111.5.122.569h.015a.4.4,0,0,0,.019-.094l0-.006,0-.013,0-.008,0-.01,0-.014c.03-.173.06-.312.092-.425L2.961.091h.5L4.586,4.236c.045.163.078.354.091.425l0,.019,0,.012,0,.013,0,.006,0,.01,0,.024,0,.025,0,.011,0,.012c0,.008,0,.011,0,.012h.014v0a.18.18,0,0,0,0-.024c.034-.182.073-.364.117-.54L5.914.091H6.46L5.041,5.427h-.63L3.393,1.67c-.051-.2-.112-.471-.171-.778l0-.011,0-.009H3.2V.887L3.2.9V.9c-.068.347-.122.591-.17.768L2.012,5.428Zm59.068,0h-.524V.562H58.635V.091h4.357V.562H61.079V5.427Zm21.718,0h-.531V3.136L80.467.091h.6L82.2,2.027c.15.258.307.6.325.634l0,.005h.014l0,0,0-.009a6.717,6.717,0,0,1,.32-.625L84,.091h.592L82.8,3.136V5.427Zm-12.191,0H67.463V.091h3.006V.562H67.987V2.5h2.027v.471H67.987V4.957h2.619v.47Zm-26.736,0H42.147V.091H43.87a2.48,2.48,0,0,1,2.68,2.665A2.483,2.483,0,0,1,43.87,5.428ZM42.671.562v4.4h1.146A2.016,2.016,0,0,0,46,2.756,2.012,2.012,0,0,0,43.817.562ZM34.487,5.428h-.524V.091h1.845A1.542,1.542,0,0,1,37.455,1.7a1.552,1.552,0,0,1-1.647,1.633H34.487V5.427Zm0-4.866v2.3H35.74A1.085,1.085,0,0,0,36.916,1.7,1.071,1.071,0,0,0,35.747.562ZM14.3,5.428H11.159V.091h3.006V.562H11.683V2.5H13.71v.471H11.683V4.957H14.3v.47Z" transform="translate(0.296 76.149)"/>
  </g>
</svg>
