<svg id="ic_news_feed" xmlns="http://www.w3.org/2000/svg" xmlns:xlink="http://www.w3.org/1999/xlink" viewBox="0 0 40 40">
  <defs>
    <style>
      .cls-1, .cls-6 {
        fill: none;
      }

      .cls-1 {
        stroke: #fff;
        stroke-miterlimit: 10;
        stroke-width: 2px;
      }

      .cls-2 {
        fill: #f57c00;
      }

      .cls-3 {
        fill: #fff;
      }

      .cls-4 {
        clip-path: url(#clip-path);
      }

      .cls-5 {
        stroke: none;
      }
    </style>
    <clipPath id="clip-path">
      <circle id="Mask" class="cls-1" cx="20" cy="20" r="20"/>
    </clipPath>
  </defs>
  <rect id="Rectangle_9" data-name="Rectangle 9" class="cls-2" width="6" height="6" rx="1" transform="translate(13 17)"/>
  <rect id="Rectangle_10" data-name="Rectangle 10" class="cls-3" width="14" height="2" rx="1" transform="translate(13 26)"/>
  <rect id="Rectangle_10-2" data-name="Rectangle 10" class="cls-3" width="8" height="2" rx="1" transform="translate(13 31)"/>
  <g id="Rectangle_8" data-name="Rectangle 8">
    <g id="Mask-2" data-name="Mask" class="cls-1">
      <circle class="cls-5" cx="20" cy="20" r="20"/>
      <circle class="cls-6" cx="20" cy="20" r="19"/>
    </g>
    <g id="Rectangle_8-2" data-name="Rectangle 8" class="cls-4">
      <g id="Rectangle_8-3" data-name="Rectangle 8" class="cls-1" transform="translate(8 12)">
        <path class="cls-5" d="M2,0H22a2,2,0,0,1,2,2V32a0,0,0,0,1,0,0H0a0,0,0,0,1,0,0V2A2,2,0,0,1,2,0Z"/>
        <rect class="cls-6" x="1" y="1" width="22" height="30" rx="1"/>
      </g>
    </g>
  </g>
</svg>
