<svg xmlns="http://www.w3.org/2000/svg" xmlns:xlink="http://www.w3.org/1999/xlink" viewBox="0 0 280 48">
  <defs>
    <style>
      .cls-1 {
        fill: #0087ff;
      }

      .cls-2 {
        clip-path: url(#clip-path);
      }

      .cls-3 {
        fill: #006df0;
      }

      .cls-4 {
        fill: none;
      }

      .cls-5 {
        fill: #fff;
      }

      .cls-6 {
        filter: url(#Mask);
      }
    </style>
    <filter id="Mask" x="-6" y="-4" width="292" height="60" filterUnits="userSpaceOnUse">
      <feOffset dy="2" input="SourceAlpha"/>
      <feGaussianBlur stdDeviation="2" result="blur"/>
      <feFlood flood-opacity="0.2"/>
      <feComposite operator="in" in2="blur"/>
      <feComposite in="SourceGraphic"/>
    </filter>
    <clipPath id="clip-path">
      <g class="cls-6" transform="matrix(1, 0, 0, 1, 0, 0)">
        <rect id="Mask-2" data-name="Mask" class="cls-1" width="280" height="48" rx="24"/>
      </g>
    </clipPath>
  </defs>
  <g id="Rectangle_7" data-name="Rectangle 7" class="cls-2">
    <g id="facebook-letter-logo" transform="translate(16 55)">
      <path id="Facebook" class="cls-3" d="M6.268,12.007v8.536H0V30.982H6.268V62H19.144V30.983h8.641s.809-5,1.2-10.477H19.193V13.368a3.036,3.036,0,0,1,2.791-2.5H29V0H19.461C5.95,0,6.268,10.448,6.268,12.007Z"/>
    </g>
    <rect id="Rectangle_7-2" data-name="Rectangle 7" class="cls-4" width="48" height="48"/>
    <path id="Mask-3" data-name="Mask" class="cls-5" d="M5.878,10.122a12.756,12.756,0,0,1-1.706-2.31q-.3-.512-.539-1.035c.116-.2.57-.989,1.318-2.189.874-1.4-.572-2.766-1.3-4.018C3.02-.526,1.816.3,1.816.3a6.153,6.153,0,0,0-1.254.828,1.857,1.857,0,0,0-.517,1.76A14.386,14.386,0,0,0,1.986,9.07,15.08,15.08,0,0,0,4.1,11.9l1.779-1.779a12.758,12.758,0,0,0,2.311,1.705q.512.3,1.035.539c.2-.116.989-.57,2.19-1.317,1.4-.874,2.767.571,4.019,1.3,1.1.634.273,1.838.273,1.838a6.152,6.152,0,0,1-.828,1.254,1.858,1.858,0,0,1-1.76.517,14.393,14.393,0,0,1-6.187-1.941A15.082,15.082,0,0,1,4.1,11.9l1.782-1.782Z" transform="translate(20 16)"/>
  </g>
</svg>
