<svg xmlns="http://www.w3.org/2000/svg" viewBox="0 0 44 44">
  <defs>
    <style>
      .cls-1 {
        fill: none;
        stroke-miterlimit: 10;
      }

      .cls-2 {
        fill: rgba(255,255,255,0.5);
      }

      .cls-3, .cls-5 {
        fill: #fff;
      }

      .cls-4, .cls-5 {
        stroke: none;
      }
    </style>
  </defs>
  <g id="Group_3" data-name="Group 3" transform="translate(2 2)">
    <g id="Group_2" data-name="Group 2">
      <g id="Combined_Shape" data-name="Combined Shape" class="cls-1">
        <path class="cls-4" d="M0,20a19.929,19.929,0,0,1,1.667-8.006V1.667H11.994A20.01,20.01,0,0,1,38.334,28v10.33H28A20.01,20.01,0,0,1,0,20Z"/>
        <path class="cls-5" d="M 19.99979972839355 0 C 17.15275955200195 0 14.44536972045898 0.5945701599121094 11.99374961853027 1.666801452636719 L 1.666801452636719 1.666801452636719 L 1.666801452636719 11.99374961853027 C 0.5945701599121094 14.44536972045898 0 17.15275955200195 0 19.99979972839355 C 0 31.04549980163574 8.954099655151367 39.99959945678711 19.99979972839355 39.99959945678711 C 22.84560012817383 39.99959945678711 25.55279922485352 39.40470123291016 28.00349998474121 38.33369827270508 L 38.33369827270508 38.33369827270508 L 38.33369827270508 28.00349998474121 C 39.40470123291016 25.55279922485352 39.99959945678711 22.84560012817383 39.99959945678711 19.99979972839355 C 39.99959945678711 8.954099655151367 31.04549980163574 0 19.99979972839355 0 M 19.99979972839355 -2 C 22.96890068054199 -2 25.85023880004883 -1.418060302734375 28.56377029418945 -0.2703399658203125 C 31.18373870849609 0.837799072265625 33.53627777099609 2.423778533935547 35.55604934692383 4.443550109863281 C 37.57582092285156 6.46331787109375 39.16180038452148 8.815858840942383 40.26993942260742 11.43582916259766 C 41.41765975952148 14.14936065673828 41.99959945678711 17.03069877624512 41.99959945678711 19.99979972839355 C 41.99959945678711 22.91498374938965 41.43937683105469 25.74246025085449 40.33369827270508 28.41118812561035 L 40.33369827270508 38.33369827270508 L 40.33369827270508 40.33369827270508 L 38.33369827270508 40.33369827270508 L 28.41118812561035 40.33369827270508 C 25.74246025085449 41.43937683105469 22.91498374938965 41.99959945678711 19.99979972839355 41.99959945678711 C 17.03069877624512 41.99959945678711 14.14936065673828 41.41765975952148 11.43582916259766 40.26993942260742 C 8.815858840942383 39.16180038452148 6.46331787109375 37.57582092285156 4.443550109863281 35.55604934692383 C 2.423778533935547 33.53627777099609 0.837799072265625 31.18373870849609 -0.2703399658203125 28.56377029418945 C -1.418060302734375 25.85023880004883 -2 22.96890068054199 -2 19.99979972839355 C -2 17.08257293701172 -1.439418792724609 14.25407981872559 -0.3331985473632813 11.58579444885254 L -0.3331985473632813 1.666801452636719 L -0.3331985473632813 -0.3331985473632813 L 1.666801452636719 -0.3331985473632813 L 11.58579444885254 -0.3331985473632813 C 14.25407981872559 -1.439418792724609 17.08257293701172 -2 19.99979972839355 -2 Z"/>
      </g>
      <g id="Group_5" data-name="Group 5" transform="translate(8 13)">
        <g id="Group_6" data-name="Group 6">
          <path id="Triangle_2" data-name="Triangle 2" class="cls-2" d="M4.851,8.127,0,0H8.108a.511.511,0,0,1,.456.74Z" transform="translate(15.319 0)"/>
          <path id="Mask" class="cls-2" d="M8.274,15.313a.529.529,0,0,1-.946,0L0,.74A.511.511,0,0,1,.459,0H11a3.064,3.064,0,0,1,2.737,4.44Z" transform="translate(0.114)"/>
          <path id="Combined_Shape-2" data-name="Combined Shape" class="cls-3" d="M0,0,7.7,15.313a.529.529,0,0,0,.946,0l3.612-7.186L8.17,0Z" transform="translate(7.915)"/>
        </g>
      </g>
    </g>
  </g>
</svg>
