<svg id="Group" xmlns="http://www.w3.org/2000/svg" viewBox="0 0 47 54">
  <defs>
    <style>
      .cls-1 {
        fill: #fff;
      }
    </style>
  </defs>
  <path id="Combined_Shape" data-name="Combined Shape" class="cls-1" d="M37,47H1a1,1,0,0,1-1-1V1A1,1,0,0,1,1,0H26.125V7.05H33.25V14.1H38V46A1,1,0,0,1,37,47ZM7.125,35.25v4.7H23.75v-4.7Zm0-9.4v4.7h23.75v-4.7Zm0-18.8v14.1h14.25V7.05Z" transform="translate(0 7)"/>
  <path id="Combined_Shape-2" data-name="Combined Shape" class="cls-1" d="M7.125,19V11.875H0V7.125H7.125V0h4.749V7.125H19v4.749H11.875V19Z" transform="translate(28)"/>
</svg>
